<svg width="32" height="30" viewBox="0 0 32 30" fill="none" xmlns="http://www.w3.org/2000/svg">
<path d="M18.514 2.68351e-06C18.4041 -0.000168816 18.2937 0.00788473 18.1836 0.0227891C17.7431 0.0824066 17.3086 0.264164 16.9499 0.582685V0.584313L9.26432 7.41537H3.75C1.69375 7.41537 0 9.10912 0 11.1654V18.6654C0 20.7216 1.69375 22.4154 3.75 22.4154H9.26432L16.9499 29.2464C17.6672 29.8842 18.6845 29.978 19.4548 29.6322C20.225 29.2863 20.8333 28.4632 20.8333 27.5033V2.32748C20.8333 1.36792 20.2266 0.544513 19.4564 0.19857C19.1675 0.0688416 18.8437 0.000517267 18.514 2.68351e-06ZM18.3333 2.69857V27.1322L10.5697 20.2311C10.3409 20.0278 10.0456 19.9155 9.73958 19.9154H3.75C3.04458 19.9154 2.5 19.3708 2.5 18.6654V11.1654C2.5 10.46 3.04458 9.91537 3.75 9.91537H9.73958C10.0456 9.91526 10.3409 9.80291 10.5697 9.59961L18.3333 2.69857ZM28.1299 4.89909C27.913 4.8982 27.6997 4.95374 27.5108 5.06025C27.3219 5.16675 27.1639 5.32057 27.0524 5.50658C26.941 5.69259 26.8798 5.9044 26.8749 6.12121C26.8701 6.33801 26.9217 6.55235 27.0247 6.74317C29.9075 12.2638 29.9075 17.567 27.0247 23.0876C26.9457 23.2334 26.8964 23.3935 26.8799 23.5586C26.8633 23.7236 26.8797 23.8903 26.9282 24.0489C26.9767 24.2076 27.0563 24.355 27.1624 24.4825C27.2684 24.6101 27.3988 24.7153 27.5459 24.792C27.693 24.8686 27.8538 24.9153 28.0191 24.9291C28.1844 24.943 28.3508 24.9239 28.5087 24.8728C28.6665 24.8217 28.8126 24.7397 28.9384 24.6316C29.0642 24.5235 29.1673 24.3915 29.2415 24.2432C32.4421 18.1138 32.4421 11.717 29.2415 5.58757C29.1379 5.38138 28.9791 5.20792 28.7829 5.0864C28.5867 4.96488 28.3607 4.90005 28.1299 4.89909ZM24.3099 9.07878C24.1036 9.08758 23.9028 9.14733 23.7252 9.25269C23.5477 9.35805 23.399 9.50574 23.2924 9.68257C23.1859 9.85941 23.1248 10.0599 23.1146 10.2661C23.1044 10.4723 23.1455 10.6778 23.2341 10.8643C24.4978 13.6296 24.4961 16.2152 23.2275 18.9811C23.158 19.1305 23.1186 19.2921 23.1117 19.4567C23.1048 19.6213 23.1305 19.7856 23.1873 19.9403C23.2442 20.0949 23.331 20.2368 23.4429 20.3577C23.5547 20.4787 23.6894 20.5764 23.8391 20.6451C23.9888 20.7139 24.1506 20.7523 24.3153 20.7583C24.4799 20.7643 24.6441 20.7377 24.7984 20.68C24.9528 20.6223 25.0941 20.5347 25.2145 20.4222C25.3348 20.3097 25.4318 20.1745 25.4997 20.0244C27.0311 16.6853 27.034 13.1638 25.5078 9.82422C25.4064 9.5938 25.2378 9.39936 25.0241 9.26635C24.8103 9.13335 24.5614 9.06797 24.3099 9.07878Z" fill="#53DB68"/>
</svg>
